#!OML:ASF H:\LiuWeirdWalks\Patient Classification 1\Patient 1\Session 1\male.ASF
:FULLY-SPECIFIED
:DEGREES
669
root 1.92283 18.2163 -14.5317 7.49931 7.86884 -5.63726
lowerback 2.95955 2.59448 -0.681044
upperback -1.59324 3.50087 1.97491
thorax -3.46335 1.78606 2.20387
lowerneck -16.8078 -0.589183 4.38514
upperneck 20.9595 -0.975101 -4.26701
head 9.32964 -0.576439 -2.32971
rclavicle 2.84014e-014 -5.56597e-015
rhumerus -38.6439 -3.40982 -81.2228
rradius 34.2001
rwrist -8.76838
rhand -15.5713 -4.15344
rfingers 7.12502
rthumb 10.6137 -33.8654
lclavicle 2.84014e-014 -5.56597e-015
lhumerus -40.5459 0.379378 79.8013
lradius 40.4149
lwrist 13.2478
lhand -13.1575 0.557982
lfingers 7.12502
lthumb 12.9414 30.1367
rfemur 11.657 -3.98018 27.6877
rtibia 18.574
rfoot 9.15124 -15.29
rtoes -15.1205
lfemur -24.0967 -0.06463 -16.4237
ltibia 25.8312
lfoot -10.097 -1.44856
ltoes -6.23414
670
root 1.93278 18.2172 -14.4942 7.51781 7.80562 -5.62222
lowerback 2.93686 2.55165 -0.655778
upperback -1.60962 3.4451 1.98025
thorax -3.46372 1.75788 2.19946
lowerneck -16.8168 -0.597491 4.35515
upperneck 20.9755 -0.978003 -4.2705
head 9.33687 -0.580664 -2.32672
rclavicle 3.557e-014 1.98785e-016
rhumerus -38.8038 -3.43067 -81.1298
rradius 34.1808
rwrist -8.74477
rhand -15.5802 -4.15113
rfingers 7.12502
rthumb 10.6051 -33.8635
lclavicle 3.557e-014 1.98785e-016
lhumerus -40.4182 0.322946 79.8182
lradius 40.5531
lwrist 13.3105
lhand -13.1836 0.612917
lfingers 7.12502
lthumb 12.9163 30.1932
rfemur 11.7311 -3.88896 27.6381
rtibia 18.5577
rfoot 9.43389 -15.2181
rtoes -15.207
lfemur -24.0175 -0.160257 -16.4732
ltibia 25.931
lfoot -9.98388 -1.37138
ltoes -5.47849
671
root 1.94257 18.2179 -14.457 7.53725 7.74207 -5.59899
lowerback 2.90418 2.50922 -0.637474
upperback -1.6194 3.38929 1.98309
thorax -3.45192 1.72971 2.19695
lowerneck -16.9133 -0.596297 4.36359
upperneck 21.0251 -0.970968 -4.31712
head 9.3719 -0.582499 -2.34564
rclavicle -3.45264e-014 9.93923e-016
rhumerus -38.9427 -3.46166 -81.0332
rradius 34.1362
rwrist -8.71655
rhand -15.5807 -4.14118
rfingers 7.12502
rthumb 10.6046 -33.8536
lclavicle -3.45264e-014 9.93923e-016
lhumerus -40.2829 0.271318 79.8354
lradius 40.6885
lwrist 13.3878
lhand -13.1856 0.659914
lfingers 7.12502
lthumb 12.9143 30.2403
rfemur 11.7878 -3.82412 27.5707
rtibia 18.5759
rfoot 9.70577 -15.1451
rtoes -15.3819
lfemur -23.9342 -0.264015 -16.5284
ltibia 26.0233
lfoot -9.84694 -1.27902
ltoes -4.67369
672
root 1.95184 18.2182 -14.4205 7.56021 7.67983 -5.56041
lowerback 2.87451 2.46727 -0.637731
upperback -1.62739 3.33314 1.98135
thorax -3.44078 1.70172 2.19997
lowerneck -17.0692 -0.586388 4.39913
upperneck 21.1056 -0.95554 -4.38709
head 9.42887 -0.58116 -2.37758
rclavicle 2.09718e-014 5.46658e-015
rhumerus -39.0751 -3.50615 -80.9319
rradius 34.0791
rwrist -8.67705
rhand -15.577 -4.10592
rfingers 7.12502
rthumb 10.6082 -33.8182
lclavicle 2.09718e-014 5.46658e-015
lhumerus -40.1367 0.215735 79.8531
lradius 40.8064
lwrist 13.4724
lhand -13.1707 0.680566
lfingers 7.12502
lthumb 12.9287 30.2601
rfemur 11.8249 -3.78559 27.4803
rtibia 18.6249
rfoot 9.95251 -15.0605
rtoes -15.7888
lfemur -23.8525 -0.360255 -16.5997
ltibia 26.1089
lfoot -9.68596 -1.20578
ltoes -3.79931
673
root 1.96052 18.2182 -14.3845 7.57514 7.61237 -5.53141
lowerback 2.86013 2.42879 -0.637602
upperback -1.63631 3.28189 1.98425
thorax -3.43971 1.67628 2.20651
lowerneck -17.2261 -0.562331 4.48213
upperneck 21.1771 -0.925639 -4.49127
head 9.48319 -0.573285 -2.42745
rclavicle -1.17034e-014 -8.34896e-015
rhumerus -39.2005 -3.56241 -80.8224
rradius 34.0045
rwrist -8.64816
rhand -15.5489 -4.08756
rfingers 7.12502
rthumb 10.6353 -33.7984
lclavicle -1.17034e-014 -8.34896e-015
lhumerus -39.9879 0.159162 79.8743
lradius 40.9081
lwrist 13.5547
lhand -13.1572 0.72897
lfingers 7.12502
lthumb 12.9417 30.3076
rfemur 11.8522 -3.75586 27.3957
rtibia 18.6992
rfoot 10.1835 -14.9777
rtoes -16.3635
lfemur -23.7669 -0.454372 -16.6574
ltibia 26.1928
lfoot -9.51054 -1.1429
ltoes -2.86872
